<?xml version="1.0" encoding="utf-8" standalone="no"?>
<!DOCTYPE svg PUBLIC "-//W3C//DTD SVG 1.1//EN"
  "http://www.w3.org/Graphics/SVG/1.1/DTD/svg11.dtd">
<!-- Created with matplotlib (https://matplotlib.org/) -->
<svg height="668.16pt" version="1.1" viewBox="0 0 1382.4 668.16" width="1382.4pt" xmlns="http://www.w3.org/2000/svg" xmlns:xlink="http://www.w3.org/1999/xlink">
 <defs>
  <style type="text/css">
*{stroke-linecap:butt;stroke-linejoin:round;}
  </style>
 </defs>
 <g id="figure_1">
  <g id="patch_1">
   <path d="M 0 668.16 
L 1382.4 668.16 
L 1382.4 0 
L 0 0 
z
" style="fill:#ffffff;"/>
  </g>
  <g id="axes_1">
   <g id="patch_2">
    <path d="M 172.8 594.6624 
L 1244.16 594.6624 
L 1244.16 80.1792 
L 172.8 80.1792 
z
" style="fill:#ffffff;"/>
   </g>
   <g id="matplotlib.axis_1">
    <g id="xtick_1">
     <g id="line2d_1">
      <defs>
       <path d="M 0 0 
L 0 3.5 
" id="m2e3708e40e" style="stroke:#000000;stroke-width:0.8;"/>
      </defs>
      <g>
       <use style="stroke:#000000;stroke-width:0.8;" x="317.967982" xlink:href="#m2e3708e40e" y="594.6624"/>
      </g>
     </g>
     <g id="text_1">
      <!-- 6.0 -->
      <defs>
       <path d="M 33.015625 40.375 
Q 26.375 40.375 22.484375 35.828125 
Q 18.609375 31.296875 18.609375 23.390625 
Q 18.609375 15.53125 22.484375 10.953125 
Q 26.375 6.390625 33.015625 6.390625 
Q 39.65625 6.390625 43.53125 10.953125 
Q 47.40625 15.53125 47.40625 23.390625 
Q 47.40625 31.296875 43.53125 35.828125 
Q 39.65625 40.375 33.015625 40.375 
z
M 52.59375 71.296875 
L 52.59375 62.3125 
Q 48.875 64.0625 45.09375 64.984375 
Q 41.3125 65.921875 37.59375 65.921875 
Q 27.828125 65.921875 22.671875 59.328125 
Q 17.53125 52.734375 16.796875 39.40625 
Q 19.671875 43.65625 24.015625 45.921875 
Q 28.375 48.1875 33.59375 48.1875 
Q 44.578125 48.1875 50.953125 41.515625 
Q 57.328125 34.859375 57.328125 23.390625 
Q 57.328125 12.15625 50.6875 5.359375 
Q 44.046875 -1.421875 33.015625 -1.421875 
Q 20.359375 -1.421875 13.671875 8.265625 
Q 6.984375 17.96875 6.984375 36.375 
Q 6.984375 53.65625 15.1875 63.9375 
Q 23.390625 74.21875 37.203125 74.21875 
Q 40.921875 74.21875 44.703125 73.484375 
Q 48.484375 72.75 52.59375 71.296875 
z
" id="DejaVuSans-54"/>
       <path d="M 10.6875 12.40625 
L 21 12.40625 
L 21 0 
L 10.6875 0 
z
" id="DejaVuSans-46"/>
       <path d="M 31.78125 66.40625 
Q 24.171875 66.40625 20.328125 58.90625 
Q 16.5 51.421875 16.5 36.375 
Q 16.5 21.390625 20.328125 13.890625 
Q 24.171875 6.390625 31.78125 6.390625 
Q 39.453125 6.390625 43.28125 13.890625 
Q 47.125 21.390625 47.125 36.375 
Q 47.125 51.421875 43.28125 58.90625 
Q 39.453125 66.40625 31.78125 66.40625 
z
M 31.78125 74.21875 
Q 44.046875 74.21875 50.515625 64.515625 
Q 56.984375 54.828125 56.984375 36.375 
Q 56.984375 17.96875 50.515625 8.265625 
Q 44.046875 -1.421875 31.78125 -1.421875 
Q 19.53125 -1.421875 13.0625 8.265625 
Q 6.59375 17.96875 6.59375 36.375 
Q 6.59375 54.828125 13.0625 64.515625 
Q 19.53125 74.21875 31.78125 74.21875 
z
" id="DejaVuSans-48"/>
      </defs>
      <g transform="translate(310.016419 609.260837)scale(0.1 -0.1)">
       <use xlink:href="#DejaVuSans-54"/>
       <use x="63.623047" xlink:href="#DejaVuSans-46"/>
       <use x="95.410156" xlink:href="#DejaVuSans-48"/>
      </g>
     </g>
    </g>
    <g id="xtick_2">
     <g id="line2d_2">
      <g>
       <use style="stroke:#000000;stroke-width:0.8;" x="504.791283" xlink:href="#m2e3708e40e" y="594.6624"/>
      </g>
     </g>
     <g id="text_2">
      <!-- 6.5 -->
      <defs>
       <path d="M 10.796875 72.90625 
L 49.515625 72.90625 
L 49.515625 64.59375 
L 19.828125 64.59375 
L 19.828125 46.734375 
Q 21.96875 47.46875 24.109375 47.828125 
Q 26.265625 48.1875 28.421875 48.1875 
Q 40.625 48.1875 47.75 41.5 
Q 54.890625 34.8125 54.890625 23.390625 
Q 54.890625 11.625 47.5625 5.09375 
Q 40.234375 -1.421875 26.90625 -1.421875 
Q 22.3125 -1.421875 17.546875 -0.640625 
Q 12.796875 0.140625 7.71875 1.703125 
L 7.71875 11.625 
Q 12.109375 9.234375 16.796875 8.0625 
Q 21.484375 6.890625 26.703125 6.890625 
Q 35.15625 6.890625 40.078125 11.328125 
Q 45.015625 15.765625 45.015625 23.390625 
Q 45.015625 31 40.078125 35.4375 
Q 35.15625 39.890625 26.703125 39.890625 
Q 22.75 39.890625 18.8125 39.015625 
Q 14.890625 38.140625 10.796875 36.28125 
z
" id="DejaVuSans-53"/>
      </defs>
      <g transform="translate(496.839721 609.260837)scale(0.1 -0.1)">
       <use xlink:href="#DejaVuSans-54"/>
       <use x="63.623047" xlink:href="#DejaVuSans-46"/>
       <use x="95.410156" xlink:href="#DejaVuSans-53"/>
      </g>
     </g>
    </g>
    <g id="xtick_3">
     <g id="line2d_3">
      <g>
       <use style="stroke:#000000;stroke-width:0.8;" x="691.614584" xlink:href="#m2e3708e40e" y="594.6624"/>
      </g>
     </g>
     <g id="text_3">
      <!-- 7.0 -->
      <defs>
       <path d="M 8.203125 72.90625 
L 55.078125 72.90625 
L 55.078125 68.703125 
L 28.609375 0 
L 18.3125 0 
L 43.21875 64.59375 
L 8.203125 64.59375 
z
" id="DejaVuSans-55"/>
      </defs>
      <g transform="translate(683.663022 609.260837)scale(0.1 -0.1)">
       <use xlink:href="#DejaVuSans-55"/>
       <use x="63.623047" xlink:href="#DejaVuSans-46"/>
       <use x="95.410156" xlink:href="#DejaVuSans-48"/>
      </g>
     </g>
    </g>
    <g id="xtick_4">
     <g id="line2d_4">
      <g>
       <use style="stroke:#000000;stroke-width:0.8;" x="878.437885" xlink:href="#m2e3708e40e" y="594.6624"/>
      </g>
     </g>
     <g id="text_4">
      <!-- 7.5 -->
      <g transform="translate(870.486323 609.260837)scale(0.1 -0.1)">
       <use xlink:href="#DejaVuSans-55"/>
       <use x="63.623047" xlink:href="#DejaVuSans-46"/>
       <use x="95.410156" xlink:href="#DejaVuSans-53"/>
      </g>
     </g>
    </g>
    <g id="xtick_5">
     <g id="line2d_5">
      <g>
       <use style="stroke:#000000;stroke-width:0.8;" x="1065.261186" xlink:href="#m2e3708e40e" y="594.6624"/>
      </g>
     </g>
     <g id="text_5">
      <!-- 8.0 -->
      <defs>
       <path d="M 31.78125 34.625 
Q 24.75 34.625 20.71875 30.859375 
Q 16.703125 27.09375 16.703125 20.515625 
Q 16.703125 13.921875 20.71875 10.15625 
Q 24.75 6.390625 31.78125 6.390625 
Q 38.8125 6.390625 42.859375 10.171875 
Q 46.921875 13.96875 46.921875 20.515625 
Q 46.921875 27.09375 42.890625 30.859375 
Q 38.875 34.625 31.78125 34.625 
z
M 21.921875 38.8125 
Q 15.578125 40.375 12.03125 44.71875 
Q 8.5 49.078125 8.5 55.328125 
Q 8.5 64.0625 14.71875 69.140625 
Q 20.953125 74.21875 31.78125 74.21875 
Q 42.671875 74.21875 48.875 69.140625 
Q 55.078125 64.0625 55.078125 55.328125 
Q 55.078125 49.078125 51.53125 44.71875 
Q 48 40.375 41.703125 38.8125 
Q 48.828125 37.15625 52.796875 32.3125 
Q 56.78125 27.484375 56.78125 20.515625 
Q 56.78125 9.90625 50.3125 4.234375 
Q 43.84375 -1.421875 31.78125 -1.421875 
Q 19.734375 -1.421875 13.25 4.234375 
Q 6.78125 9.90625 6.78125 20.515625 
Q 6.78125 27.484375 10.78125 32.3125 
Q 14.796875 37.15625 21.921875 38.8125 
z
M 18.3125 54.390625 
Q 18.3125 48.734375 21.84375 45.5625 
Q 25.390625 42.390625 31.78125 42.390625 
Q 38.140625 42.390625 41.71875 45.5625 
Q 45.3125 48.734375 45.3125 54.390625 
Q 45.3125 60.0625 41.71875 63.234375 
Q 38.140625 66.40625 31.78125 66.40625 
Q 25.390625 66.40625 21.84375 63.234375 
Q 18.3125 60.0625 18.3125 54.390625 
z
" id="DejaVuSans-56"/>
      </defs>
      <g transform="translate(1057.309624 609.260837)scale(0.1 -0.1)">
       <use xlink:href="#DejaVuSans-56"/>
       <use x="63.623047" xlink:href="#DejaVuSans-46"/>
       <use x="95.410156" xlink:href="#DejaVuSans-48"/>
      </g>
     </g>
    </g>
    <g id="text_6">
     <!-- time (s) -->
     <defs>
      <path d="M 18.3125 70.21875 
L 18.3125 54.6875 
L 36.8125 54.6875 
L 36.8125 47.703125 
L 18.3125 47.703125 
L 18.3125 18.015625 
Q 18.3125 11.328125 20.140625 9.421875 
Q 21.96875 7.515625 27.59375 7.515625 
L 36.8125 7.515625 
L 36.8125 0 
L 27.59375 0 
Q 17.1875 0 13.234375 3.875 
Q 9.28125 7.765625 9.28125 18.015625 
L 9.28125 47.703125 
L 2.6875 47.703125 
L 2.6875 54.6875 
L 9.28125 54.6875 
L 9.28125 70.21875 
z
" id="DejaVuSans-116"/>
      <path d="M 9.421875 54.6875 
L 18.40625 54.6875 
L 18.40625 0 
L 9.421875 0 
z
M 9.421875 75.984375 
L 18.40625 75.984375 
L 18.40625 64.59375 
L 9.421875 64.59375 
z
" id="DejaVuSans-105"/>
      <path d="M 52 44.1875 
Q 55.375 50.25 60.0625 53.125 
Q 64.75 56 71.09375 56 
Q 79.640625 56 84.28125 50.015625 
Q 88.921875 44.046875 88.921875 33.015625 
L 88.921875 0 
L 79.890625 0 
L 79.890625 32.71875 
Q 79.890625 40.578125 77.09375 44.375 
Q 74.3125 48.1875 68.609375 48.1875 
Q 61.625 48.1875 57.5625 43.546875 
Q 53.515625 38.921875 53.515625 30.90625 
L 53.515625 0 
L 44.484375 0 
L 44.484375 32.71875 
Q 44.484375 40.625 41.703125 44.40625 
Q 38.921875 48.1875 33.109375 48.1875 
Q 26.21875 48.1875 22.15625 43.53125 
Q 18.109375 38.875 18.109375 30.90625 
L 18.109375 0 
L 9.078125 0 
L 9.078125 54.6875 
L 18.109375 54.6875 
L 18.109375 46.1875 
Q 21.1875 51.21875 25.484375 53.609375 
Q 29.78125 56 35.6875 56 
Q 41.65625 56 45.828125 52.96875 
Q 50 49.953125 52 44.1875 
z
" id="DejaVuSans-109"/>
      <path d="M 56.203125 29.59375 
L 56.203125 25.203125 
L 14.890625 25.203125 
Q 15.484375 15.921875 20.484375 11.0625 
Q 25.484375 6.203125 34.421875 6.203125 
Q 39.59375 6.203125 44.453125 7.46875 
Q 49.3125 8.734375 54.109375 11.28125 
L 54.109375 2.78125 
Q 49.265625 0.734375 44.1875 -0.34375 
Q 39.109375 -1.421875 33.890625 -1.421875 
Q 20.796875 -1.421875 13.15625 6.1875 
Q 5.515625 13.8125 5.515625 26.8125 
Q 5.515625 40.234375 12.765625 48.109375 
Q 20.015625 56 32.328125 56 
Q 43.359375 56 49.78125 48.890625 
Q 56.203125 41.796875 56.203125 29.59375 
z
M 47.21875 32.234375 
Q 47.125 39.59375 43.09375 43.984375 
Q 39.0625 48.390625 32.421875 48.390625 
Q 24.90625 48.390625 20.390625 44.140625 
Q 15.875 39.890625 15.1875 32.171875 
z
" id="DejaVuSans-101"/>
      <path id="DejaVuSans-32"/>
      <path d="M 31 75.875 
Q 24.46875 64.65625 21.28125 53.65625 
Q 18.109375 42.671875 18.109375 31.390625 
Q 18.109375 20.125 21.3125 9.0625 
Q 24.515625 -2 31 -13.1875 
L 23.1875 -13.1875 
Q 15.875 -1.703125 12.234375 9.375 
Q 8.59375 20.453125 8.59375 31.390625 
Q 8.59375 42.28125 12.203125 53.3125 
Q 15.828125 64.359375 23.1875 75.875 
z
" id="DejaVuSans-40"/>
      <path d="M 44.28125 53.078125 
L 44.28125 44.578125 
Q 40.484375 46.53125 36.375 47.5 
Q 32.28125 48.484375 27.875 48.484375 
Q 21.1875 48.484375 17.84375 46.4375 
Q 14.5 44.390625 14.5 40.28125 
Q 14.5 37.15625 16.890625 35.375 
Q 19.28125 33.59375 26.515625 31.984375 
L 29.59375 31.296875 
Q 39.15625 29.25 43.1875 25.515625 
Q 47.21875 21.78125 47.21875 15.09375 
Q 47.21875 7.46875 41.1875 3.015625 
Q 35.15625 -1.421875 24.609375 -1.421875 
Q 20.21875 -1.421875 15.453125 -0.5625 
Q 10.6875 0.296875 5.421875 2 
L 5.421875 11.28125 
Q 10.40625 8.6875 15.234375 7.390625 
Q 20.0625 6.109375 24.8125 6.109375 
Q 31.15625 6.109375 34.5625 8.28125 
Q 37.984375 10.453125 37.984375 14.40625 
Q 37.984375 18.0625 35.515625 20.015625 
Q 33.0625 21.96875 24.703125 23.78125 
L 21.578125 24.515625 
Q 13.234375 26.265625 9.515625 29.90625 
Q 5.8125 33.546875 5.8125 39.890625 
Q 5.8125 47.609375 11.28125 51.796875 
Q 16.75 56 26.8125 56 
Q 31.78125 56 36.171875 55.265625 
Q 40.578125 54.546875 44.28125 53.078125 
z
" id="DejaVuSans-115"/>
      <path d="M 8.015625 75.875 
L 15.828125 75.875 
Q 23.140625 64.359375 26.78125 53.3125 
Q 30.421875 42.28125 30.421875 31.390625 
Q 30.421875 20.453125 26.78125 9.375 
Q 23.140625 -1.703125 15.828125 -13.1875 
L 8.015625 -13.1875 
Q 14.5 -2 17.703125 9.0625 
Q 20.90625 20.125 20.90625 31.390625 
Q 20.90625 42.671875 17.703125 53.65625 
Q 14.5 64.65625 8.015625 75.875 
z
" id="DejaVuSans-41"/>
     </defs>
     <g transform="translate(689.088594 622.938963)scale(0.1 -0.1)">
      <use xlink:href="#DejaVuSans-116"/>
      <use x="39.208984" xlink:href="#DejaVuSans-105"/>
      <use x="66.992188" xlink:href="#DejaVuSans-109"/>
      <use x="164.404297" xlink:href="#DejaVuSans-101"/>
      <use x="225.927734" xlink:href="#DejaVuSans-32"/>
      <use x="257.714844" xlink:href="#DejaVuSans-40"/>
      <use x="296.728516" xlink:href="#DejaVuSans-115"/>
      <use x="348.828125" xlink:href="#DejaVuSans-41"/>
     </g>
    </g>
   </g>
   <g id="matplotlib.axis_2">
    <g id="ytick_1">
     <g id="line2d_6">
      <defs>
       <path d="M 0 0 
L -3.5 0 
" id="m08ad50b4fa" style="stroke:#000000;stroke-width:0.8;"/>
      </defs>
      <g>
       <use style="stroke:#000000;stroke-width:0.8;" x="172.8" xlink:href="#m08ad50b4fa" y="533.703357"/>
      </g>
     </g>
     <g id="text_7">
      <!-- −20 -->
      <defs>
       <path d="M 10.59375 35.5 
L 73.1875 35.5 
L 73.1875 27.203125 
L 10.59375 27.203125 
z
" id="DejaVuSans-8722"/>
       <path d="M 19.1875 8.296875 
L 53.609375 8.296875 
L 53.609375 0 
L 7.328125 0 
L 7.328125 8.296875 
Q 12.9375 14.109375 22.625 23.890625 
Q 32.328125 33.6875 34.8125 36.53125 
Q 39.546875 41.84375 41.421875 45.53125 
Q 43.3125 49.21875 43.3125 52.78125 
Q 43.3125 58.59375 39.234375 62.25 
Q 35.15625 65.921875 28.609375 65.921875 
Q 23.96875 65.921875 18.8125 64.3125 
Q 13.671875 62.703125 7.8125 59.421875 
L 7.8125 69.390625 
Q 13.765625 71.78125 18.9375 73 
Q 24.125 74.21875 28.421875 74.21875 
Q 39.75 74.21875 46.484375 68.546875 
Q 53.21875 62.890625 53.21875 53.421875 
Q 53.21875 48.921875 51.53125 44.890625 
Q 49.859375 40.875 45.40625 35.40625 
Q 44.1875 33.984375 37.640625 27.21875 
Q 31.109375 20.453125 19.1875 8.296875 
z
" id="DejaVuSans-50"/>
      </defs>
      <g transform="translate(144.695312 537.502576)scale(0.1 -0.1)">
       <use xlink:href="#DejaVuSans-8722"/>
       <use x="83.789062" xlink:href="#DejaVuSans-50"/>
       <use x="147.412109" xlink:href="#DejaVuSans-48"/>
      </g>
     </g>
    </g>
    <g id="ytick_2">
     <g id="line2d_7">
      <g>
       <use style="stroke:#000000;stroke-width:0.8;" x="172.8" xlink:href="#m08ad50b4fa" y="467.942453"/>
      </g>
     </g>
     <g id="text_8">
      <!-- −15 -->
      <defs>
       <path d="M 12.40625 8.296875 
L 28.515625 8.296875 
L 28.515625 63.921875 
L 10.984375 60.40625 
L 10.984375 69.390625 
L 28.421875 72.90625 
L 38.28125 72.90625 
L 38.28125 8.296875 
L 54.390625 8.296875 
L 54.390625 0 
L 12.40625 0 
z
" id="DejaVuSans-49"/>
      </defs>
      <g transform="translate(144.695312 471.741671)scale(0.1 -0.1)">
       <use xlink:href="#DejaVuSans-8722"/>
       <use x="83.789062" xlink:href="#DejaVuSans-49"/>
       <use x="147.412109" xlink:href="#DejaVuSans-53"/>
      </g>
     </g>
    </g>
    <g id="ytick_3">
     <g id="line2d_8">
      <g>
       <use style="stroke:#000000;stroke-width:0.8;" x="172.8" xlink:href="#m08ad50b4fa" y="402.181548"/>
      </g>
     </g>
     <g id="text_9">
      <!-- −10 -->
      <g transform="translate(144.695312 405.980767)scale(0.1 -0.1)">
       <use xlink:href="#DejaVuSans-8722"/>
       <use x="83.789062" xlink:href="#DejaVuSans-49"/>
       <use x="147.412109" xlink:href="#DejaVuSans-48"/>
      </g>
     </g>
    </g>
    <g id="ytick_4">
     <g id="line2d_9">
      <g>
       <use style="stroke:#000000;stroke-width:0.8;" x="172.8" xlink:href="#m08ad50b4fa" y="336.420644"/>
      </g>
     </g>
     <g id="text_10">
      <!-- −5 -->
      <g transform="translate(151.057812 340.219863)scale(0.1 -0.1)">
       <use xlink:href="#DejaVuSans-8722"/>
       <use x="83.789062" xlink:href="#DejaVuSans-53"/>
      </g>
     </g>
    </g>
    <g id="ytick_5">
     <g id="line2d_10">
      <g>
       <use style="stroke:#000000;stroke-width:0.8;" x="172.8" xlink:href="#m08ad50b4fa" y="270.65974"/>
      </g>
     </g>
     <g id="text_11">
      <!-- 0 -->
      <g transform="translate(159.4375 274.458958)scale(0.1 -0.1)">
       <use xlink:href="#DejaVuSans-48"/>
      </g>
     </g>
    </g>
    <g id="ytick_6">
     <g id="line2d_11">
      <g>
       <use style="stroke:#000000;stroke-width:0.8;" x="172.8" xlink:href="#m08ad50b4fa" y="204.898835"/>
      </g>
     </g>
     <g id="text_12">
      <!-- 5 -->
      <g transform="translate(159.4375 208.698054)scale(0.1 -0.1)">
       <use xlink:href="#DejaVuSans-53"/>
      </g>
     </g>
    </g>
    <g id="ytick_7">
     <g id="line2d_12">
      <g>
       <use style="stroke:#000000;stroke-width:0.8;" x="172.8" xlink:href="#m08ad50b4fa" y="139.137931"/>
      </g>
     </g>
     <g id="text_13">
      <!-- 10 -->
      <g transform="translate(153.075 142.93715)scale(0.1 -0.1)">
       <use xlink:href="#DejaVuSans-49"/>
       <use x="63.623047" xlink:href="#DejaVuSans-48"/>
      </g>
     </g>
    </g>
    <g id="text_14">
     <!-- vertical acceleration (m/s^2) -->
     <defs>
      <path d="M 2.984375 54.6875 
L 12.5 54.6875 
L 29.59375 8.796875 
L 46.6875 54.6875 
L 56.203125 54.6875 
L 35.6875 0 
L 23.484375 0 
z
" id="DejaVuSans-118"/>
      <path d="M 41.109375 46.296875 
Q 39.59375 47.171875 37.8125 47.578125 
Q 36.03125 48 33.890625 48 
Q 26.265625 48 22.1875 43.046875 
Q 18.109375 38.09375 18.109375 28.8125 
L 18.109375 0 
L 9.078125 0 
L 9.078125 54.6875 
L 18.109375 54.6875 
L 18.109375 46.1875 
Q 20.953125 51.171875 25.484375 53.578125 
Q 30.03125 56 36.53125 56 
Q 37.453125 56 38.578125 55.875 
Q 39.703125 55.765625 41.0625 55.515625 
z
" id="DejaVuSans-114"/>
      <path d="M 48.78125 52.59375 
L 48.78125 44.1875 
Q 44.96875 46.296875 41.140625 47.34375 
Q 37.3125 48.390625 33.40625 48.390625 
Q 24.65625 48.390625 19.8125 42.84375 
Q 14.984375 37.3125 14.984375 27.296875 
Q 14.984375 17.28125 19.8125 11.734375 
Q 24.65625 6.203125 33.40625 6.203125 
Q 37.3125 6.203125 41.140625 7.25 
Q 44.96875 8.296875 48.78125 10.40625 
L 48.78125 2.09375 
Q 45.015625 0.34375 40.984375 -0.53125 
Q 36.96875 -1.421875 32.421875 -1.421875 
Q 20.0625 -1.421875 12.78125 6.34375 
Q 5.515625 14.109375 5.515625 27.296875 
Q 5.515625 40.671875 12.859375 48.328125 
Q 20.21875 56 33.015625 56 
Q 37.15625 56 41.109375 55.140625 
Q 45.0625 54.296875 48.78125 52.59375 
z
" id="DejaVuSans-99"/>
      <path d="M 34.28125 27.484375 
Q 23.390625 27.484375 19.1875 25 
Q 14.984375 22.515625 14.984375 16.5 
Q 14.984375 11.71875 18.140625 8.90625 
Q 21.296875 6.109375 26.703125 6.109375 
Q 34.1875 6.109375 38.703125 11.40625 
Q 43.21875 16.703125 43.21875 25.484375 
L 43.21875 27.484375 
z
M 52.203125 31.203125 
L 52.203125 0 
L 43.21875 0 
L 43.21875 8.296875 
Q 40.140625 3.328125 35.546875 0.953125 
Q 30.953125 -1.421875 24.3125 -1.421875 
Q 15.921875 -1.421875 10.953125 3.296875 
Q 6 8.015625 6 15.921875 
Q 6 25.140625 12.171875 29.828125 
Q 18.359375 34.515625 30.609375 34.515625 
L 43.21875 34.515625 
L 43.21875 35.40625 
Q 43.21875 41.609375 39.140625 45 
Q 35.0625 48.390625 27.6875 48.390625 
Q 23 48.390625 18.546875 47.265625 
Q 14.109375 46.140625 10.015625 43.890625 
L 10.015625 52.203125 
Q 14.9375 54.109375 19.578125 55.046875 
Q 24.21875 56 28.609375 56 
Q 40.484375 56 46.34375 49.84375 
Q 52.203125 43.703125 52.203125 31.203125 
z
" id="DejaVuSans-97"/>
      <path d="M 9.421875 75.984375 
L 18.40625 75.984375 
L 18.40625 0 
L 9.421875 0 
z
" id="DejaVuSans-108"/>
      <path d="M 30.609375 48.390625 
Q 23.390625 48.390625 19.1875 42.75 
Q 14.984375 37.109375 14.984375 27.296875 
Q 14.984375 17.484375 19.15625 11.84375 
Q 23.34375 6.203125 30.609375 6.203125 
Q 37.796875 6.203125 41.984375 11.859375 
Q 46.1875 17.53125 46.1875 27.296875 
Q 46.1875 37.015625 41.984375 42.703125 
Q 37.796875 48.390625 30.609375 48.390625 
z
M 30.609375 56 
Q 42.328125 56 49.015625 48.375 
Q 55.71875 40.765625 55.71875 27.296875 
Q 55.71875 13.875 49.015625 6.21875 
Q 42.328125 -1.421875 30.609375 -1.421875 
Q 18.84375 -1.421875 12.171875 6.21875 
Q 5.515625 13.875 5.515625 27.296875 
Q 5.515625 40.765625 12.171875 48.375 
Q 18.84375 56 30.609375 56 
z
" id="DejaVuSans-111"/>
      <path d="M 54.890625 33.015625 
L 54.890625 0 
L 45.90625 0 
L 45.90625 32.71875 
Q 45.90625 40.484375 42.875 44.328125 
Q 39.84375 48.1875 33.796875 48.1875 
Q 26.515625 48.1875 22.3125 43.546875 
Q 18.109375 38.921875 18.109375 30.90625 
L 18.109375 0 
L 9.078125 0 
L 9.078125 54.6875 
L 18.109375 54.6875 
L 18.109375 46.1875 
Q 21.34375 51.125 25.703125 53.5625 
Q 30.078125 56 35.796875 56 
Q 45.21875 56 50.046875 50.171875 
Q 54.890625 44.34375 54.890625 33.015625 
z
" id="DejaVuSans-110"/>
      <path d="M 25.390625 72.90625 
L 33.6875 72.90625 
L 8.296875 -9.28125 
L 0 -9.28125 
z
" id="DejaVuSans-47"/>
      <path d="M 46.6875 72.90625 
L 73.1875 45.703125 
L 63.375 45.703125 
L 41.890625 64.984375 
L 20.40625 45.703125 
L 10.59375 45.703125 
L 37.109375 72.90625 
z
" id="DejaVuSans-94"/>
     </defs>
     <g transform="translate(138.615625 410.475488)rotate(-90)scale(0.1 -0.1)">
      <use xlink:href="#DejaVuSans-118"/>
      <use x="59.179688" xlink:href="#DejaVuSans-101"/>
      <use x="120.703125" xlink:href="#DejaVuSans-114"/>
      <use x="161.816406" xlink:href="#DejaVuSans-116"/>
      <use x="201.025391" xlink:href="#DejaVuSans-105"/>
      <use x="228.808594" xlink:href="#DejaVuSans-99"/>
      <use x="283.789062" xlink:href="#DejaVuSans-97"/>
      <use x="345.068359" xlink:href="#DejaVuSans-108"/>
      <use x="372.851562" xlink:href="#DejaVuSans-32"/>
      <use x="404.638672" xlink:href="#DejaVuSans-97"/>
      <use x="465.917969" xlink:href="#DejaVuSans-99"/>
      <use x="520.898438" xlink:href="#DejaVuSans-99"/>
      <use x="575.878906" xlink:href="#DejaVuSans-101"/>
      <use x="637.402344" xlink:href="#DejaVuSans-108"/>
      <use x="665.185547" xlink:href="#DejaVuSans-101"/>
      <use x="726.708984" xlink:href="#DejaVuSans-114"/>
      <use x="767.822266" xlink:href="#DejaVuSans-97"/>
      <use x="829.101562" xlink:href="#DejaVuSans-116"/>
      <use x="868.310547" xlink:href="#DejaVuSans-105"/>
      <use x="896.09375" xlink:href="#DejaVuSans-111"/>
      <use x="957.275391" xlink:href="#DejaVuSans-110"/>
      <use x="1020.654297" xlink:href="#DejaVuSans-32"/>
      <use x="1052.441406" xlink:href="#DejaVuSans-40"/>
      <use x="1091.455078" xlink:href="#DejaVuSans-109"/>
      <use x="1188.867188" xlink:href="#DejaVuSans-47"/>
      <use x="1222.558594" xlink:href="#DejaVuSans-115"/>
      <use x="1274.658203" xlink:href="#DejaVuSans-94"/>
      <use x="1358.447266" xlink:href="#DejaVuSans-50"/>
      <use x="1422.070312" xlink:href="#DejaVuSans-41"/>
     </g>
    </g>
   </g>
   <g id="line2d_13">
    <path clip-path="url(#p5f831f49f4)" d="M 172.062296 271.331288 
L 180.398333 271.683121 
L 188.963678 272.265735 
L 199.978862 273.165405 
L 205.452964 273.422698 
L 226.429389 275.645508 
L 233.455967 276.086169 
L 240.551655 276.28935 
L 247.642599 276.257007 
L 254.699989 275.991967 
L 260.88452 275.52752 
L 266.404375 274.877968 
L 270.320943 274.224094 
L 274.193507 273.367271 
L 278.152783 272.266158 
L 281.303467 271.183744 
L 284.391547 269.905202 
L 287.53109 268.420482 
L 290.67158 266.726394 
L 293.777389 264.827698 
L 298.418914 261.627444 
L 303.125646 258.078942 
L 309.302929 253.011686 
L 319.447937 244.780543 
L 324.195385 241.314868 
L 328.133105 238.698203 
L 332.667601 235.938508 
L 336.342624 233.974177 
L 339.99662 232.312699 
L 342.93631 231.191107 
L 346.677422 230.02765 
L 350.443458 229.10036 
L 354.952884 228.25166 
L 359.514761 227.63594 
L 364.84502 227.142787 
L 370.91808 226.801514 
L 377.756848 226.652794 
L 383.865438 226.756515 
L 388.436724 227.03456 
L 392.988431 227.545213 
L 396.788267 228.191823 
L 400.584943 229.072538 
L 404.355083 230.209006 
L 408.115002 231.609222 
L 412.73487 233.624227 
L 416.668537 235.54979 
L 421.368551 238.089654 
L 424.453973 239.877402 
L 431.495142 241.246109 
L 446.273533 249.723526 
L 450.968995 252.155476 
L 458.821109 255.924534 
L 481.134927 266.554379 
L 490.734102 271.894018 
L 502.733491 278.510479 
L 507.277589 280.720083 
L 511.064739 282.334257 
L 514.833487 283.681917 
L 517.840448 284.534612 
L 520.855919 285.16396 
L 523.890719 285.553896 
L 526.928398 285.693844 
L 529.888877 285.579128 
L 532.838572 285.211145 
L 535.853818 284.597326 
L 538.851765 283.750855 
L 541.842104 282.690128 
L 545.617942 281.098057 
L 549.423303 279.259226 
L 553.991423 276.808493 
L 560.824281 272.854077 
L 569.167165 268.057871 
L 572.95293 266.082089 
L 576.753405 264.357645 
L 579.791638 263.234772 
L 582.073475 262.5878 
L 584.357425 262.146138 
L 586.643295 261.948677 
L 588.931145 262.038723 
L 590.449749 262.281818 
L 591.968402 262.688862 
L 593.487103 263.275652 
L 595.006002 264.058578 
L 596.524851 265.054492 
L 598.04365 266.280541 
L 599.560523 267.753972 
L 601.077607 269.4919 
L 602.594901 271.511042 
L 604.11317 273.827415 
L 605.630455 276.456004 
L 607.146757 279.41039 
L 609.419585 284.47801 
L 611.690619 290.334551 
L 613.95438 296.99523 
L 616.235111 304.457085 
L 618.516132 312.695538 
L 620.797319 321.661201 
L 623.837163 334.609356 
L 626.860609 348.444945 
L 637.412148 397.779641 
L 639.682153 406.994251 
L 641.941224 415.130304 
L 643.445325 419.816014 
L 644.948354 423.815831 
L 646.459038 427.051566 
L 647.977378 429.44957 
L 648.735325 430.312985 
L 649.493272 430.942093 
L 650.251219 431.329565 
L 651.008722 431.468601 
L 651.766224 431.352968 
L 652.523727 430.977039 
L 653.280683 430.335824 
L 654.037639 429.425005 
L 654.794595 428.240963 
L 655.550985 426.780806 
L 656.307375 425.042394 
L 657.826797 420.726135 
L 659.35286 415.290861 
L 660.880514 408.748348 
L 662.408749 401.123703 
L 663.937565 392.455363 
L 665.467669 382.79486 
L 667.764252 366.587403 
L 670.038274 348.560453 
L 673.070409 322.250719 
L 676.87221 286.947969 
L 685.200885 208.655162 
L 688.209478 182.883419 
L 690.46394 165.284935 
L 692.733151 149.451716 
L 695.009719 135.574378 
L 696.527398 127.47558 
L 698.045145 120.327235 
L 699.563135 114.139759 
L 701.081146 108.911663 
L 702.599178 104.630051 
L 704.124585 101.271271 
L 705.649629 98.801703 
L 706.411968 97.887361 
L 707.174308 97.178663 
L 707.936675 96.669023 
L 708.699042 96.351421 
L 709.461408 96.21844 
L 710.223826 96.2623 
L 710.986243 96.4749 
L 711.74866 96.847853 
L 712.511189 97.372527 
L 714.036245 98.841517 
L 715.56127 100.809396 
L 716.323782 101.957345 
L 720.868188 104.534854 
L 723.140391 105.945936 
L 725.421794 110.559499 
L 729.223551 118.998012 
L 733.776304 129.170194 
L 736.797912 135.345731 
L 739.074017 139.443033 
L 741.280089 142.983602 
L 742.752745 145.005044 
L 744.241544 146.742446 
L 745.746486 148.190422 
L 747.255473 149.348235 
L 748.765241 150.21941 
L 750.275789 150.811336 
L 751.788337 151.134845 
L 753.301884 151.203797 
L 754.816431 151.034671 
L 756.336307 150.646161 
L 757.856619 150.058798 
L 760.138185 148.853336 
L 762.421194 147.328849 
L 765.466075 144.941757 
L 771.55395 139.68458 
L 775.361883 136.604651 
L 777.645942 134.998246 
L 779.92128 133.644728 
L 782.198314 132.59254 
L 784.476053 131.880213 
L 785.999385 131.60831 
L 787.522994 131.505431 
L 789.04688 131.57462 
L 790.565637 131.81649 
L 792.080806 132.229173 
L 793.592386 132.808275 
L 795.858793 133.973111 
L 798.124752 135.462135 
L 800.391418 137.228717 
L 803.428735 139.913036 
L 813.281838 149.101074 
L 815.563368 150.787764 
L 817.085273 151.717801 
L 818.607753 152.461724 
L 820.129918 152.99516 
L 821.652441 153.29589 
L 823.175323 153.344325 
L 824.701942 153.12397 
L 826.228789 152.621868 
L 827.755864 151.829026 
L 829.283205 150.740814 
L 830.810956 149.357323 
L 832.339116 147.683694 
L 833.868159 145.73039 
L 835.390152 143.51343 
L 837.668318 139.742789 
L 839.958894 135.527255 
L 843.783198 127.872776 
L 848.359874 118.634958 
L 850.630371 114.481554 
L 852.142507 112.046006 
L 853.654438 109.965118 
L 855.166166 108.316623 
L 856.678335 107.179433 
L 857.43442 106.827336 
L 858.193042 106.632725 
L 858.951663 106.605381 
L 859.710284 106.754972 
L 860.467706 107.091026 
L 861.225128 107.622895 
L 861.98255 108.359716 
L 862.734888 109.310378 
L 863.487226 110.483488 
L 864.239564 111.887329 
L 865.741148 115.418511 
L 867.242866 119.962361 
L 868.744718 125.569799 
L 870.263937 132.28306 
L 871.782749 140.134562 
L 873.301154 149.145822 
L 874.819287 159.326472 
L 876.337642 170.673365 
L 878.615822 189.840068 
L 880.89794 211.473604 
L 883.187308 235.3835 
L 886.242056 270.33611 
L 889.299057 308.032138 
L 893.07831 357.432993 
L 896.852554 407.173954 
L 900.67609 454.719937 
L 903.715198 489.479755 
L 905.951678 512.852859 
L 908.205791 533.426835 
L 909.70831 545.406091 
L 911.210164 555.892808 
L 912.71136 564.81885 
L 914.211899 572.135056 
L 915.690556 577.811662 
L 916.429884 580.031124 
L 917.187733 581.838292 
L 917.945581 583.234827 
L 918.70343 584.223528 
L 919.462347 584.808295 
L 920.221264 584.994092 
L 920.980181 584.786899 
L 921.739751 584.193666 
L 922.499321 583.222263 
L 923.258892 581.881422 
L 924.018663 580.180682 
L 924.778434 578.13033 
L 925.538205 575.741343 
L 927.010812 569.994448 
L 928.504534 563.039284 
L 930.019371 554.982302 
L 931.534453 545.935245 
L 933.807511 530.760885 
L 936.080674 514.013411 
L 938.304771 496.085178 
L 951.093277 389.051868 
L 954.104581 365.978107 
L 957.117962 344.640007 
L 960.124278 325.264517 
L 962.352769 312.097339 
L 964.60687 300.121543 
L 966.865193 289.330344 
L 969.133607 279.696818 
L 971.390517 271.177575 
L 973.634005 263.715961 
L 975.908244 257.244808 
L 978.182577 251.688808 
L 980.457371 246.966649 
L 982.707272 242.993074 
L 984.174063 240.716898 
L 985.690575 238.708887 
L 987.965147 236.144174 
L 990.23949 234.04295 
L 992.513606 232.328065 
L 995.370506 230.523711 
L 997.552903 229.456286 
L 1000.464035 228.326709 
L 1003.374934 227.462917 
L 1006.359734 226.820179 
L 1009.35227 226.383089 
L 1012.320058 226.159065 
L 1015.262477 226.170614 
L 1018.26506 226.447335 
L 1020.525094 226.846716 
L 1022.779115 227.422084 
L 1025.000181 228.180444 
L 1027.214702 229.12479 
L 1030.181167 230.669958 
L 1033.173624 232.526083 
L 1036.10134 234.662496 
L 1039.751998 237.660391 
L 1044.282016 241.596371 
L 1054.692161 251.081507 
L 1059.86647 255.373967 
L 1063.033114 257.559107 
L 1066.295528 259.512715 
L 1070.283605 261.6039 
L 1073.450305 262.988779 
L 1076.623778 264.121237 
L 1085.977541 265.012643 
L 1091.42056 265.533242 
L 1094.468142 266.047089 
L 1098.279934 266.433315 
L 1102.170407 266.58068 
L 1106.751296 266.509201 
L 1112.107082 266.175314 
L 1118.241502 265.575155 
L 1127.427348 264.43188 
L 1146.495425 261.925773 
L 1153.383839 261.286326 
L 1158.749987 261.003039 
L 1164.096206 260.950614 
L 1169.430367 261.143564 
L 1174.774276 261.567216 
L 1180.847891 262.278402 
L 1189.27446 263.481205 
L 1200.007627 265.010602 
L 1206.976836 265.822436 
L 1214.59281 266.495074 
L 1222.344925 266.915897 
L 1230.232564 267.106029 
L 1239.815908 267.100202 
L 1245.356928 267.073056 
L 1245.356928 267.073056 
" style="fill:none;stroke:#1f77b4;stroke-linecap:square;stroke-width:1.5;"/>
   </g>
   <g id="patch_3">
    <path d="M 172.8 594.6624 
L 172.8 80.1792 
" style="fill:none;stroke:#000000;stroke-linecap:square;stroke-linejoin:miter;stroke-width:0.8;"/>
   </g>
   <g id="patch_4">
    <path d="M 1244.16 594.6624 
L 1244.16 80.1792 
" style="fill:none;stroke:#000000;stroke-linecap:square;stroke-linejoin:miter;stroke-width:0.8;"/>
   </g>
   <g id="patch_5">
    <path d="M 172.8 594.6624 
L 1244.16 594.6624 
" style="fill:none;stroke:#000000;stroke-linecap:square;stroke-linejoin:miter;stroke-width:0.8;"/>
   </g>
   <g id="patch_6">
    <path d="M 172.8 80.1792 
L 1244.16 80.1792 
" style="fill:none;stroke:#000000;stroke-linecap:square;stroke-linejoin:miter;stroke-width:0.8;"/>
   </g>
   <g id="text_15">
    <!-- Entire trial -->
    <defs>
     <path d="M 9.8125 72.90625 
L 55.90625 72.90625 
L 55.90625 64.59375 
L 19.671875 64.59375 
L 19.671875 43.015625 
L 54.390625 43.015625 
L 54.390625 34.71875 
L 19.671875 34.71875 
L 19.671875 8.296875 
L 56.78125 8.296875 
L 56.78125 0 
L 9.8125 0 
z
" id="DejaVuSans-69"/>
    </defs>
    <g transform="translate(676.974375 74.1792)scale(0.12 -0.12)">
     <use xlink:href="#DejaVuSans-69"/>
     <use x="63.183594" xlink:href="#DejaVuSans-110"/>
     <use x="126.5625" xlink:href="#DejaVuSans-116"/>
     <use x="165.771484" xlink:href="#DejaVuSans-105"/>
     <use x="193.554688" xlink:href="#DejaVuSans-114"/>
     <use x="234.636719" xlink:href="#DejaVuSans-101"/>
     <use x="296.160156" xlink:href="#DejaVuSans-32"/>
     <use x="327.947266" xlink:href="#DejaVuSans-116"/>
     <use x="367.15625" xlink:href="#DejaVuSans-114"/>
     <use x="408.269531" xlink:href="#DejaVuSans-105"/>
     <use x="436.052734" xlink:href="#DejaVuSans-97"/>
     <use x="497.332031" xlink:href="#DejaVuSans-108"/>
    </g>
   </g>
   <g id="legend_1">
    <g id="patch_7">
     <path d="M 1103.092812 102.857325 
L 1237.16 102.857325 
Q 1239.16 102.857325 1239.16 100.857325 
L 1239.16 87.1792 
Q 1239.16 85.1792 1237.16 85.1792 
L 1103.092812 85.1792 
Q 1101.092812 85.1792 1101.092812 87.1792 
L 1101.092812 100.857325 
Q 1101.092812 102.857325 1103.092812 102.857325 
z
" style="fill:#ffffff;opacity:0.8;stroke:#cccccc;stroke-linejoin:miter;"/>
    </g>
    <g id="line2d_14">
     <path d="M 1105.092812 93.277638 
L 1125.092812 93.277638 
" style="fill:none;stroke:#1f77b4;stroke-linecap:square;stroke-width:1.5;"/>
    </g>
    <g id="line2d_15"/>
    <g id="text_16">
     <!-- vertical acceleration -->
     <g transform="translate(1133.092812 96.777638)scale(0.1 -0.1)">
      <use xlink:href="#DejaVuSans-118"/>
      <use x="59.179688" xlink:href="#DejaVuSans-101"/>
      <use x="120.703125" xlink:href="#DejaVuSans-114"/>
      <use x="161.816406" xlink:href="#DejaVuSans-116"/>
      <use x="201.025391" xlink:href="#DejaVuSans-105"/>
      <use x="228.808594" xlink:href="#DejaVuSans-99"/>
      <use x="283.789062" xlink:href="#DejaVuSans-97"/>
      <use x="345.068359" xlink:href="#DejaVuSans-108"/>
      <use x="372.851562" xlink:href="#DejaVuSans-32"/>
      <use x="404.638672" xlink:href="#DejaVuSans-97"/>
      <use x="465.917969" xlink:href="#DejaVuSans-99"/>
      <use x="520.898438" xlink:href="#DejaVuSans-99"/>
      <use x="575.878906" xlink:href="#DejaVuSans-101"/>
      <use x="637.402344" xlink:href="#DejaVuSans-108"/>
      <use x="665.185547" xlink:href="#DejaVuSans-101"/>
      <use x="726.708984" xlink:href="#DejaVuSans-114"/>
      <use x="767.822266" xlink:href="#DejaVuSans-97"/>
      <use x="829.101562" xlink:href="#DejaVuSans-116"/>
      <use x="868.310547" xlink:href="#DejaVuSans-105"/>
      <use x="896.09375" xlink:href="#DejaVuSans-111"/>
      <use x="957.275391" xlink:href="#DejaVuSans-110"/>
     </g>
    </g>
   </g>
  </g>
 </g>
 <defs>
  <clipPath id="p5f831f49f4">
   <rect height="514.4832" width="1071.36" x="172.8" y="80.1792"/>
  </clipPath>
 </defs>
</svg>
